<?xml version="1.0" encoding="iso-8859-1"?>
<!-- Uploaded to: SVG Repo, www.svgrepo.com, Generator: SVG Repo Mixer Tools -->
<svg version="1.1" id="Layer_1" xmlns="http://www.w3.org/2000/svg" xmlns:xlink="http://www.w3.org/1999/xlink" 
	 viewBox="0 0 512 512" xml:space="preserve">
<path d="M256,0C114.616,0,0,114.616,0,256s114.616,256,256,256s256-114.616,256-256S397.384,0,256,0z"/>
<path style="fill:#FFFFFF;" d="M397.52,355.584H114.48c-14.56,0-26.48-11.912-26.48-26.48v-173.84c0-14.56,11.912-26.48,26.48-26.48
	h283.04c14.56,0,26.48,11.912,26.48,26.48v173.848C424,343.672,412.088,355.584,397.52,355.584z"/>
<rect x="104.8" y="145.6" width="302.4" height="193.2"/>
<rect x="197.344" y="355.6" style="fill:#E0E0E0;" width="100.176" height="35.92"/>
<polygon style="fill:#FFFFFF;" points="305.912,399.112 188.944,399.112 197.344,391.512 297.512,391.512 "/>
<g style="opacity:0.2;">
	<polygon points="197.344,355.584 274.896,355.584 197.344,376.728 	"/>
</g>
<polygon style="fill:#E21B1B;" points="221.528,197.136 221.528,287.24 305.912,242.192 "/>
<g style="opacity:0.2;">
	<polygon style="fill:#FFFFFF;" points="104.8,224.608 104.8,145.584 198.688,145.584 	"/>
</g>
<rect x="188.952" y="399.112" style="fill:#E0E0E0;" width="116.968" height="8.208"/>
</svg>